<svg width="236" height="236" viewBox="0 0 236 236" fill="none" xmlns="http://www.w3.org/2000/svg">
<path d="M92.6292 105.941H66.8115L0.159098 57.3258C-0.0135288 57.1999 -0.0515223 56.9581 0.0739536 56.7853L17.4609 32.8474C17.5868 32.6742 17.8294 32.636 18.0024 32.7621L83.6738 80.6578C83.9772 80.879 84.3864 80.5824 84.2702 80.2252L71.9264 42.2203C71.8604 42.0168 71.9716 41.7984 72.175 41.7323L100.32 32.5875C100.523 32.5214 100.742 32.6327 100.808 32.8361L113.521 71.9641L105.531 96.5424L102.568 105.673C102.517 105.832 102.368 105.94 102.2 105.94L92.6292 105.941ZM113.749 140.041C113.613 139.942 113.429 139.942 113.293 140.041L105.531 145.685L84.6396 160.866L71.9266 200.007C71.8606 200.211 71.9718 200.429 72.1753 200.495L100.32 209.64C100.523 209.706 100.742 209.595 100.808 209.391L113.156 171.386C113.272 171.031 113.775 171.029 113.892 171.384L135.2 235.734C135.267 235.937 135.485 236.047 135.687 235.981L163.818 226.836C164.022 226.77 164.133 226.55 164.066 226.346L142.375 160.852L121.496 145.671L113.749 140.041ZM124.46 105.673C124.512 105.832 124.66 105.941 124.828 105.941H134.398H160.216L193.517 81.7418C193.69 81.6161 193.729 81.3739 193.603 81.2009L176.216 57.2631C176.091 57.09 175.848 57.0516 175.675 57.1773L143.339 80.6756C143.035 80.8961 142.627 80.5994 142.743 80.2426L165.671 9.65182C165.737 9.44839 165.626 9.22995 165.423 9.16389L137.292 0.0190468C137.089 -0.0470098 136.87 0.0642537 136.804 0.267685L113.521 71.9641L121.496 96.5426L124.46 105.673ZM95.5785 127.171C95.6303 127.011 95.5734 126.836 95.4378 126.738L87.6891 121.107L66.8115 105.941H25.6362C25.4222 105.941 25.2488 106.114 25.2488 106.328V135.914C25.2488 136.128 25.4222 136.301 25.6362 136.301H65.602C65.9774 136.301 66.1333 136.782 65.829 137.002L1.02184 183.889C0.848241 184.014 0.809663 184.257 0.935529 184.43L18.3225 208.368C18.448 208.541 18.6898 208.579 18.8628 208.454L84.6396 160.866L92.6155 136.301L95.5785 127.171ZM235.613 105.94L160.216 105.941L139.339 121.121L131.59 126.752C131.454 126.85 131.398 127.025 131.45 127.184L134.413 136.301L142.375 160.852L175.676 185.05C175.849 185.176 176.091 185.138 176.216 184.965L193.603 161.027C193.729 160.854 193.691 160.612 193.518 160.486L161.195 137.002C160.891 136.781 161.047 136.301 161.422 136.301H235.613C235.827 136.301 236 136.127 236 135.914V106.328C236 106.114 235.827 105.94 235.613 105.94Z" fill="#0E1B15" fill-opacity="0.64"/>
</svg>
