<svg width="25" height="25" viewBox="0 0 25 25" fill="none" xmlns="http://www.w3.org/2000/svg">
<path d="M12.5 2.5C6.986 2.5 2.5 6.986 2.5 12.5C2.5 18.014 6.986 22.5 12.5 22.5C18.014 22.5 22.5 18.014 22.5 12.5C22.5 6.986 18.014 2.5 12.5 2.5ZM12.5 20.5C8.089 20.5 4.5 16.911 4.5 12.5C4.5 8.089 8.089 4.5 12.5 4.5C16.911 4.5 20.5 8.089 20.5 12.5C20.5 16.911 16.911 20.5 12.5 20.5ZM15.641 6.93506L11.586 7.94897C9.791 8.39697 8.398 9.79204 7.948 11.587L6.93399 15.6421C6.76199 16.3301 6.959 17.04 7.461 17.542C7.843 17.923 8.346 18.1279 8.867 18.1279C9.031 18.1279 9.19599 18.1079 9.35999 18.0659L13.415 17.052C15.21 16.604 16.603 15.2089 17.053 13.4139L18.067 9.35901C18.239 8.67101 18.042 7.96098 17.54 7.45898C17.038 6.95898 16.328 6.76306 15.641 6.93506ZM16.125 8.875L15.111 12.929C14.841 14.006 14.006 14.843 12.928 15.113L8.87299 16.126L9.88699 12.072C10.157 10.995 10.992 10.1579 12.07 9.88794L16.125 8.875ZM12.5 11C13.328 11 14 11.672 14 12.5C14 13.328 13.328 14 12.5 14C11.672 14 11 13.328 11 12.5C11 11.672 11.672 11 12.5 11Z" fill="#C1C7D0" fill-opacity="0.8"/>
</svg>
