<svg width="24" height="25" viewBox="0 0 24 25" fill="none" xmlns="http://www.w3.org/2000/svg">
<path d="M20.135 7.62L15.135 3.59947C13.319 2.13888 10.682 2.13888 8.86501 3.59947L3.86501 7.62C2.68001 8.57339 2 9.99305 2 11.5137V17.508C2 20.2631 4.243 22.504 7 22.504H10V17.507C10 16.4056 10.897 15.5112 12 15.5112C13.103 15.5112 14 16.4066 14 17.507V22.504H17C19.757 22.504 22 20.2631 22 17.508V11.5137C22 9.99305 21.32 8.57339 20.135 7.62ZM20 17.508C20 19.1597 18.654 20.5032 17 20.5032H16V17.507C16 15.3031 14.206 13.5104 12 13.5104C9.794 13.5104 8 15.3031 8 17.507V20.5032H7C5.346 20.5032 4 19.1597 4 17.508V11.5137C4 10.6023 4.408 9.75094 5.118 9.17971L10.118 5.15905C11.209 4.2827 12.792 4.2827 13.882 5.15905L18.882 9.17971C19.593 9.75094 20.001 10.6023 20.001 11.5137V17.508H20Z" fill="white"/>
</svg>
