<svg width="25" height="25" viewBox="0 0 25 25" fill="none" xmlns="http://www.w3.org/2000/svg">
<path d="M21.1701 16.0179L20.0641 14.173C19.6911 13.551 19.4951 12.8409 19.4951 12.1169V9.48999C19.4951 5.63599 16.3571 2.5 12.5001 2.5C8.64309 2.5 5.50508 5.63599 5.50508 9.48999V12.1169C5.50508 12.8409 5.30808 13.551 4.93608 14.172L3.83007 16.0179C3.39807 16.7379 3.38808 17.603 3.80108 18.333C4.21408 19.063 4.96308 19.5 5.80308 19.5H9.49908C9.49908 21.154 10.8451 22.5 12.4991 22.5C14.1531 22.5 15.4991 21.154 15.4991 19.5H19.1961C20.0361 19.5 20.7851 19.063 21.1991 18.333C21.6121 17.603 21.6011 16.7369 21.1701 16.0179ZM12.4991 20.5C11.9481 20.5 11.4991 20.052 11.4991 19.5H13.4991C13.4991 20.052 13.0501 20.5 12.4991 20.5ZM19.4581 17.348C19.4261 17.405 19.3491 17.5 19.1961 17.5H5.80207C5.64907 17.5 5.57208 17.404 5.54008 17.348C5.50808 17.292 5.46608 17.177 5.54408 17.047L6.65008 15.2C7.20808 14.268 7.50409 13.2019 7.50409 12.1169V9.48999C7.50409 6.73799 9.74508 4.5 12.4991 4.5C15.2531 4.5 17.4941 6.73799 17.4941 9.48999V12.1169C17.4941 13.2019 17.7891 14.2681 18.3481 15.201L19.4551 17.047C19.5321 17.177 19.4901 17.291 19.4581 17.348Z" fill="#C1C7D0" fill-opacity="0.8"/>
</svg>
