<svg width="24" height="25" viewBox="0 0 24 25" fill="none" xmlns="http://www.w3.org/2000/svg">
<path d="M17 4.5H7C4.243 4.5 2 6.743 2 9.5V15.5C2 18.257 4.243 20.5 7 20.5H17C19.757 20.5 22 18.257 22 15.5V9.5C22 6.743 19.757 4.5 17 4.5ZM20 15.5C20 17.154 18.654 18.5 17 18.5H7C5.346 18.5 4 17.154 4 15.5V11.5H20V15.5ZM4 9.5C4 7.846 5.346 6.5 7 6.5H17C18.654 6.5 20 7.846 20 9.5H4ZM6 15.5C6 14.947 6.448 14.5 7 14.5H10C10.552 14.5 11 14.947 11 15.5C11 16.053 10.552 16.5 10 16.5H7C6.448 16.5 6 16.053 6 15.5Z" fill="#C1C7D0" fill-opacity="0.8"/>
</svg>
